<?xml version="1.0" encoding="UTF-8" standalone="no"?><!DOCTYPE svg PUBLIC "-//W3C//DTD SVG 1.1//EN" "http://www.w3.org/Graphics/SVG/1.1/DTD/svg11.dtd"><svg width="100%" height="100%" viewBox="0 0 1511 624" version="1.1" xmlns="http://www.w3.org/2000/svg" xmlns:xlink="http://www.w3.org/1999/xlink" xml:space="preserve" xmlns:serif="http://www.serif.com/" style="fill-rule:evenodd;clip-rule:evenodd;stroke-linejoin:round;stroke-miterlimit:2;"><g transform="matrix(75,0,0,75,462.425802,54.825)"></g><text x="35.947px" y="54.825px" style="font-family:'Kollektif-Bold', 'Kollektif', sans-serif;font-weight:700;font-size:75px;fill:#f2f2f2;">FlashPick B<tspan x="418.101px " y="54.825px ">y</tspan></text><g><g><g transform="matrix(401.526508,0,0,401.526508,1474.607905,427.385001)"></g><text x="-14.053px" y="427.385px" style="font-family:'LeagueGothic-Regular', 'League Gothic';font-size:401.527px;fill:#f2f2f2;">C<tspan x="124.251px 275.003px 412.707px 539.57px 681.69px 826.619px 964.121px 1114.07px " y="427.385px 427.385px 427.385px 427.385px 427.385px 427.385px 427.385px 427.385px ">ASTORYAD</tspan>IS</text></g></g><g><g><g transform="matrix(1,0,0,1,-138.68472,-39.9181)"><text x="1206.589px" y="580.384px" style="font-family:'Kollektif-Bold', 'Kollektif', sans-serif;font-weight:700;font-size:60.523px;fill:#f2f2f2;">N<tspan x="1247.745px 1261.362px 1306.815px 1320.432px 1358.985px 1372.603px 1411.156px 1424.773px 1470.226px 1483.843px " y="580.384px 580.384px 580.384px 580.384px 580.384px 580.384px 580.384px 580.384px 580.384px 580.384px "> A R R A T</tspan> I<tspan x="1546.484px 1560.102px 1605.857px 1619.474px " y="580.384px 580.384px 580.384px 580.384px "> V E</tspan></text><g transform="matrix(60.522567,0,0,60.522567,1652.253925,662.656612)"></g><text x="1128.25px" y="662.657px" style="font-family:'Kollektif-Bold', 'Kollektif', sans-serif;font-weight:700;font-size:60.523px;fill:#f2f2f2;">I<tspan x="1146.467px 1160.084px 1201.24px 1214.857px " y="662.657px 662.657px 662.657px 662.657px "> N T</tspan> E<tspan x="1288.876px 1302.494px 1329.729px 1343.347px 1370.582px 1384.199px 1402.417px 1416.034px 1455.374px 1468.992px 1498.587px 1512.205px 1553.36px 1566.978px 1606.015px 1619.632px " y="662.657px 662.657px 662.657px 662.657px 662.657px 662.657px 662.657px 662.657px 662.657px 662.657px 662.657px 662.657px 662.657px 662.657px 662.657px 662.657px "> L L I G E N C E</tspan></text></g></g></g></svg>